<svg width="32" height="32" viewBox="0 0 32 32" fill="none" xmlns="http://www.w3.org/2000/svg">
<path d="M9.33403 10.6645C7.86403 10.6645 6.66803 9.46852 6.66803 7.99852C6.66803 6.52852 7.86403 5.33252 9.33403 5.33252C10.804 5.33052 12 6.52652 12 7.99652C12 9.46852 10.804 10.6645 9.33403 10.6645Z" fill="#6026DA"/>
<path d="M13.666 15.9965H5C4.448 15.9965 4 15.5485 4 14.9965C4 13.3425 5.346 11.9965 7 11.9965H11.666C13.32 11.9965 14.666 13.3425 14.666 14.9965C14.666 15.5485 14.218 15.9965 13.666 15.9965Z" fill="#6026DA"/>
<path d="M28 26.6646C29.1046 26.6646 30 25.7691 30 24.6646C30 23.56 29.1046 22.6646 28 22.6646C26.8954 22.6646 26 23.56 26 24.6646C26 25.7691 26.8954 26.6646 28 26.6646Z" fill="#6026DA"/>
<path d="M31 31.9965H25C24.448 31.9965 24 31.5485 24 30.9965C24 29.3425 25.346 27.9965 27 27.9965H29C30.654 27.9965 32 29.3425 32 30.9965C32 31.5485 31.552 31.9965 31 31.9965Z" fill="#6026DA"/>
<path d="M17.334 26.6646C18.4386 26.6646 19.334 25.7691 19.334 24.6646C19.334 23.56 18.4386 22.6646 17.334 22.6646C16.2294 22.6646 15.334 23.56 15.334 24.6646C15.334 25.7691 16.2294 26.6646 17.334 26.6646Z" fill="#6026DA"/>
<path d="M20.334 31.9965H14.334C13.782 31.9965 13.334 31.5485 13.334 30.9965C13.334 29.3425 14.68 27.9965 16.334 27.9965H18.334C19.988 27.9965 21.334 29.3425 21.334 30.9965C21.334 31.5485 20.886 31.9965 20.334 31.9965Z" fill="#6026DA"/>
<path d="M17.334 17.3306H1.334C0.598 17.3306 0 17.9266 0 18.6646C0 19.4026 0.598 19.9966 1.334 19.9966H2.83L4 31.1046C4.054 31.6106 4.494 31.9966 5 31.9966H10.822C10.73 31.6766 10.666 31.3446 10.666 30.9966C10.666 29.1146 11.598 27.4546 13.016 26.4226C12.794 25.8786 12.666 25.2866 12.666 24.6626C12.666 22.6266 13.984 20.9086 15.806 20.2726L15.836 19.9966H17.332C18.068 19.9966 18.666 19.3986 18.666 18.6626C18.666 17.9266 18.07 17.3306 17.334 17.3306Z" fill="#6026DA"/>
<path d="M27.764 15.8245L24 13.2625L20.236 15.8245C19.476 16.3405 18.478 15.6425 18.704 14.7525L19.878 10.1185L16.35 7.1065C15.666 6.5245 16.042 5.3985 16.942 5.3465L21.432 5.0925L23.06 0.6525C23.38 -0.2175 24.618 -0.2175 24.938 0.6525L26.566 5.0925L31.056 5.3465C31.956 5.3985 32.332 6.5225 31.648 7.1065L28.12 10.1185L29.294 14.7525C29.524 15.6465 28.518 16.3365 27.764 15.8245Z" fill="#A58CEB"/>
</svg>
