<svg width="32" height="32" viewBox="0 0 32 32" fill="none" xmlns="http://www.w3.org/2000/svg">
<path d="M16.0014 10.666C13.0614 10.666 10.6674 8.274 10.6674 5.332C10.6674 2.39 13.0614 0 16.0014 0C18.9414 0 21.3354 2.392 21.3354 5.334C21.3354 8.276 18.9414 10.666 16.0014 10.666Z" fill="#FC573B"/>
<path d="M20.6674 12H11.3334C7.94743 12 5.18743 14.666 5.01343 18H26.9874C26.8154 14.666 24.0554 12 20.6674 12Z" fill="#FC573B"/>
<path d="M21.6675 32H10.3335C9.83949 32 9.41949 31.64 9.34549 31.152L8.01149 22.486C7.96749 22.196 8.05149 21.904 8.24149 21.682C8.43149 21.46 8.70949 21.334 9.00149 21.334H23.0015C23.2935 21.334 23.5715 21.462 23.7615 21.682C23.9515 21.904 24.0355 22.196 23.9915 22.486L22.6575 31.152C22.5815 31.64 22.1615 32 21.6675 32Z" fill="#FD907E"/>
<path d="M31.8214 17.76C31.6354 17.494 31.3294 17.334 31.0014 17.334H30.9574C30.7454 14.378 29.1554 11.642 26.6674 9.988C26.6594 8.888 25.7674 8 24.6674 8C23.5634 8 22.6674 8.896 22.6674 10C22.6674 11.104 23.5634 12 24.6674 12C25.0334 12 25.3714 11.894 25.6654 11.724C27.5414 13.016 28.7534 15.088 28.9574 17.334H1.00139C0.675392 17.334 0.369392 17.492 0.181392 17.76C-0.00660795 18.028 -0.0506077 18.37 0.0593923 18.676L2.72539 26.01C2.86939 26.406 3.24539 26.668 3.66539 26.668H5.95539L5.37539 22.892C5.21339 21.832 5.51939 20.758 6.21739 19.946C6.91539 19.134 7.92939 18.668 8.99939 18.668H22.9994C24.0694 18.668 25.0834 19.134 25.7814 19.946C26.4794 20.758 26.7854 21.832 26.6234 22.89L26.0414 26.668H28.3314C28.7514 26.668 29.1274 26.404 29.2714 26.01L31.9374 18.676C32.0534 18.368 32.0074 18.028 31.8214 17.76Z" fill="#FD907E"/>
</svg>
