<svg width="20" height="27" viewBox="0 0 20 27" fill="none" xmlns="http://www.w3.org/2000/svg">
<path d="M11.8517 21.8273C11.8836 21.8325 11.9158 21.8369 11.9481 21.8411C11.9158 21.837 11.8837 21.8324 11.8517 21.8273Z" fill="black"/>
<path d="M11.6984 21.7986C11.7177 21.8027 11.737 21.8067 11.7565 21.8104C11.7371 21.8067 11.7177 21.8027 11.6984 21.7986Z" fill="black"/>
<path d="M12.012 21.8497C12.0652 21.8556 12.1189 21.8602 12.1729 21.8634C12.1191 21.8603 12.0654 21.8555 12.012 21.8497Z" fill="black"/>
<path d="M12.5478 21.8633C12.4253 21.8702 12.3021 21.8702 12.1796 21.8633C12.2405 21.8668 12.3018 21.869 12.3637 21.869C12.4255 21.869 12.4868 21.8668 12.5478 21.8633Z" fill="black"/>
<path d="M12.7792 21.8411C12.8115 21.8369 12.8437 21.8325 12.8756 21.8273C12.8436 21.8324 12.8115 21.837 12.7792 21.8411Z" fill="black"/>
<path d="M13.0296 21.7986C13.0103 21.8027 12.991 21.8067 12.9716 21.8104C12.9909 21.8067 13.0103 21.8027 13.0296 21.7986Z" fill="black"/>
<path d="M12.5544 21.8634C12.6084 21.8602 12.662 21.8556 12.7153 21.8497C12.6618 21.8555 12.6082 21.8603 12.5544 21.8634Z" fill="black"/>
<rect width="20" height="20" rx="1" fill="#3CBCCC"/>
<rect y="10.9301" width="20" height="14.186" rx="1" fill="#3CBCCC"/>
<path d="M17.7259 1.39514H2.1266C1.72297 1.39514 1.39539 1.72273 1.39539 2.12636V22.8442C1.39539 23.2478 1.72297 23.5754 2.1266 23.5754H10.17V22.1129V20.9839C9.5699 20.4068 9.19503 19.5971 9.19503 18.7006C9.19503 16.9535 10.6165 15.532 12.3636 15.532C14.1108 15.532 15.5322 16.9535 15.5322 18.7006C15.5322 19.5971 15.1574 20.4068 14.5573 20.9839V22.1129V23.5754H17.7259C18.1295 23.5754 18.4571 23.2478 18.4571 22.8442V2.12636C18.4571 1.72273 18.1295 1.39514 17.7259 1.39514V1.39514ZM5.05147 7.00113H14.801C15.2046 7.00113 15.5322 7.32872 15.5322 7.73235C15.5322 8.13598 15.2046 8.46357 14.801 8.46357H5.05147C4.64784 8.46357 4.32025 8.13598 4.32025 7.73235C4.32025 7.32872 4.64784 7.00113 5.05147 7.00113ZM4.32025 5.29496C4.32025 4.89133 4.64784 4.56375 5.05147 4.56375H7.97633C8.37996 4.56375 8.70755 4.89133 8.70755 5.29496C8.70755 5.69859 8.37996 6.02618 7.97633 6.02618H5.05147C4.64784 6.02618 4.32025 5.69859 4.32025 5.29496ZM5.05147 10.901C4.64784 10.901 4.32025 10.5734 4.32025 10.1697C4.32025 9.76611 4.64784 9.43852 5.05147 9.43852H14.801C15.2046 9.43852 15.5322 9.76611 15.5322 10.1697C15.5322 10.5734 15.2046 10.901 14.801 10.901H5.05147ZM14.801 13.3383H11.8762C11.4725 13.3383 11.1449 13.0108 11.1449 12.6071C11.1449 12.2035 11.4725 11.8759 11.8762 11.8759H14.801C15.2046 11.8759 15.5322 12.2035 15.5322 12.6071C15.5322 13.0108 15.2046 13.3383 14.801 13.3383Z" fill="#E0F7FA"/>
<path d="M12.7151 21.8497C12.7369 21.8473 12.7584 21.8442 12.7801 21.8414C12.7585 21.8443 12.7369 21.8473 12.7151 21.8497Z" fill="black"/>
<path d="M12.8756 21.8273C12.9078 21.8221 12.9397 21.8162 12.9716 21.8101C12.9398 21.8163 12.9078 21.822 12.8756 21.8273Z" fill="black"/>
<path d="M12.1729 21.8628C12.175 21.8629 12.1772 21.8632 12.1794 21.8633C12.1772 21.8631 12.1751 21.8629 12.1729 21.8628Z" fill="black"/>
<path d="M11.7556 21.8101C11.7875 21.8162 11.8194 21.8221 11.8516 21.8273C11.8194 21.822 11.7874 21.8162 11.7556 21.8101Z" fill="black"/>
<path d="M12.5477 21.8633C12.5499 21.8632 12.5521 21.8629 12.5542 21.8628C12.552 21.8629 12.5498 21.8631 12.5477 21.8633Z" fill="black"/>
<path d="M11.948 21.8414C11.9697 21.8443 11.9912 21.8474 12.013 21.8497C11.9912 21.8473 11.9696 21.8443 11.948 21.8414Z" fill="black"/>
<path d="M5.05141 6.02664H7.97627C8.3801 6.02664 8.70749 5.69925 8.70749 5.29543C8.70749 4.8916 8.3801 4.56421 7.97627 4.56421H5.05141C4.64758 4.56421 4.32019 4.8916 4.32019 5.29543C4.32019 5.69925 4.64758 6.02664 5.05141 6.02664Z" fill="#80DEEA"/>
<path d="M5.05141 8.46365H14.801C15.2048 8.46365 15.5322 8.13626 15.5322 7.73244C15.5322 7.32861 15.2048 7.00122 14.801 7.00122H5.05141C4.64758 7.00122 4.32019 7.32861 4.32019 7.73244C4.32019 8.13626 4.64758 8.46365 5.05141 8.46365Z" fill="#80DEEA"/>
<path d="M15.5322 10.1697C15.5322 9.76587 15.2048 9.43848 14.801 9.43848H5.05141C4.64758 9.43848 4.32019 9.76587 4.32019 10.1697C4.32019 10.5735 4.64758 10.9009 5.05141 10.9009H14.801C15.2048 10.9009 15.5322 10.5735 15.5322 10.1697Z" fill="#80DEEA"/>
<path d="M10.1699 23.5757V22.1133V20.9843C10.0837 20.9013 10.0027 20.813 9.92621 20.7209V23.5757H10.1699Z" fill="#B2EBF2"/>
<path d="M17.7258 1.39514H9.92621V7.00113H14.801C15.2046 7.00113 15.5322 7.32872 15.5322 7.73235C15.5322 8.13598 15.2046 8.46357 14.801 8.46357H9.92621V9.43852H14.801C15.2046 9.43852 15.5322 9.76611 15.5322 10.1697C15.5322 10.5734 15.2046 10.901 14.801 10.901H9.92621V16.6785C10.5079 15.9785 11.3845 15.532 12.3636 15.532C14.1107 15.532 15.5322 16.9535 15.5322 18.7006C15.5322 19.5971 15.1573 20.4068 14.5572 20.9839V22.1129V23.5754H17.7258C18.1295 23.5754 18.4571 23.2478 18.4571 22.8442V2.12636C18.4571 1.72273 18.1295 1.39514 17.7258 1.39514V1.39514ZM14.801 13.3383H11.8761C11.4725 13.3383 11.1449 13.0108 11.1449 12.6071C11.1449 12.2035 11.4725 11.8759 11.8761 11.8759H14.801C15.2046 11.8759 15.5322 12.2035 15.5322 12.6071C15.5322 13.0108 15.2046 13.3383 14.801 13.3383Z" fill="#B2EBF2"/>
<path d="M14.801 7.00146H9.92621V8.4639H14.801C15.2048 8.4639 15.5322 8.13651 15.5322 7.73268C15.5322 7.32885 15.2048 7.00146 14.801 7.00146Z" fill="#4DD0E1"/>
<path d="M14.801 9.43872H9.92621V10.9012H14.801C15.2048 10.9012 15.5322 10.5738 15.5322 10.1699C15.5322 9.76611 15.2048 9.43872 14.801 9.43872Z" fill="#4DD0E1"/>
<path d="M14.801 11.876H11.8761C11.4723 11.876 11.1449 12.2034 11.1449 12.6072C11.1449 13.011 11.4723 13.3384 11.8761 13.3384H14.801C15.2048 13.3384 15.5322 13.011 15.5322 12.6072C15.5322 12.2034 15.2048 11.876 14.801 11.876Z" fill="#4DD0E1"/>
<path d="M13.0285 21.7988C13.0095 21.8027 12.9905 21.8066 12.9715 21.8105C12.9398 21.8164 12.9076 21.8222 12.8754 21.8276C12.8437 21.8325 12.8116 21.8373 12.7794 21.8412C12.7579 21.8442 12.7365 21.8471 12.715 21.8495C12.6619 21.8554 12.6083 21.8603 12.5542 21.8632C12.5522 21.8632 12.5498 21.8637 12.5478 21.8637C12.425 21.8705 12.3021 21.8705 12.1793 21.8637C12.1774 21.8637 12.1749 21.8632 12.173 21.8632C12.1189 21.8603 12.0652 21.8554 12.0121 21.8495C11.9907 21.8471 11.9692 21.8442 11.9478 21.8412C11.9156 21.8373 11.8834 21.8325 11.8517 21.8276C11.8195 21.8222 11.7874 21.8164 11.7557 21.8105C11.7367 21.8066 11.7177 21.8027 11.6987 21.7988C11.4057 21.7359 11.1278 21.6326 10.8709 21.4946C10.614 21.3567 10.3786 21.1846 10.1699 20.9843V26.0131C10.1699 26.2826 10.3181 26.5308 10.556 26.658C10.7939 26.7847 11.0825 26.7711 11.3067 26.6214L12.3636 25.917L13.4204 26.6214C13.5428 26.7029 13.6841 26.7443 13.826 26.7443C13.9445 26.7443 14.0629 26.7155 14.1711 26.658C14.409 26.5308 14.5572 26.2826 14.5572 26.0131V20.9843C14.1404 21.385 13.6144 21.6731 13.0285 21.7988Z" fill="#EF5350"/>
<path d="M16.7442 18.2562C16.7442 18.8652 16.6137 19.4438 16.3785 19.9694C16.1433 20.4943 15.8034 20.965 15.3846 21.3569C14.8034 21.901 14.0699 22.2922 13.2528 22.463C13.2263 22.4683 13.1998 22.4736 13.1733 22.4789C13.1291 22.4869 13.0842 22.4948 13.0394 22.5021C12.9952 22.5087 12.9503 22.5153 12.9054 22.5206C12.8755 22.5246 12.8456 22.5286 12.8157 22.5319C12.7416 22.5398 12.6668 22.5464 12.5914 22.5504C12.5887 22.5504 12.5853 22.5511 12.5825 22.5511C12.4112 22.5603 12.2399 22.5603 12.0686 22.5511C12.0659 22.5511 12.0625 22.5504 12.0598 22.5504C11.9843 22.5464 11.9096 22.5398 11.8355 22.5319C11.8056 22.5286 11.7756 22.5246 11.7457 22.5206C11.7009 22.5153 11.656 22.5087 11.6118 22.5021C11.5669 22.4948 11.5221 22.4869 11.4779 22.4789C11.4514 22.4736 11.4249 22.4683 11.3984 22.463C10.9898 22.3776 10.6023 22.2373 10.2441 22.05C9.88584 21.8626 9.5575 21.6289 9.26655 21.3569C8.42974 20.5731 7.90698 19.4736 7.90698 18.2562C7.90698 15.8837 9.88924 13.9534 12.3256 13.9534C14.7619 13.9534 16.7442 15.8837 16.7442 18.2562Z" fill="#FDD835"/>
<path d="M13.0286 21.7988C13.0096 21.8027 12.9905 21.8066 12.9715 21.8105C12.9398 21.8164 12.9077 21.8222 12.8755 21.8276C12.8438 21.8325 12.8116 21.8373 12.7795 21.8412C12.758 21.8442 12.7366 21.8471 12.7151 21.8495C12.662 21.8554 12.6084 21.8603 12.5543 21.8632C12.5523 21.8632 12.5499 21.8637 12.5479 21.8637C12.4865 21.8671 12.4251 21.8688 12.3636 21.8688V25.917L13.4205 26.6214C13.5429 26.7029 13.6842 26.7443 13.8261 26.7443C13.9445 26.7443 14.063 26.7155 14.1712 26.658C14.4091 26.5308 14.5573 26.2826 14.5573 26.0131V20.9843C14.1405 21.385 13.6145 21.6731 13.0286 21.7988Z" fill="#D32F2F"/>
<path d="M12.3256 13.9534V22.558C12.4112 22.558 12.4969 22.5557 12.5825 22.5511C12.5852 22.5511 12.5886 22.5504 12.5914 22.5504C12.6668 22.5464 12.7416 22.5398 12.8157 22.5319C12.8456 22.5286 12.8755 22.5246 12.9054 22.5206C12.9503 22.5153 12.9952 22.5087 13.0393 22.5021C13.0842 22.4948 13.1291 22.4869 13.1733 22.4789C13.1998 22.4736 13.2263 22.4683 13.2528 22.463C14.0699 22.2922 14.8034 21.901 15.3846 21.3569C15.8033 20.965 16.1432 20.4943 16.3784 19.9694C16.6136 19.4438 16.7442 18.8652 16.7442 18.2562C16.7442 15.8837 14.7619 13.9534 12.3256 13.9534Z" fill="#FBC02D"/>
</svg>
