<svg width="32" height="30" viewBox="0 0 32 30" fill="none" xmlns="http://www.w3.org/2000/svg">
<path d="M32 4C32 1.79395 30.2061 0 28 0H4C1.79395 0 0 1.79395 0 4V25.334C0 27.54 1.79395 29.334 4 29.334H28C30.2061 29.334 32 27.54 32 25.334V4ZM29.334 25.332C29.334 26.0679 28.7358 26.666 28 26.666H4C3.26416 26.666 2.66602 26.0679 2.66602 25.332V6.66602H29.332V25.332H29.334Z" fill="#26C6DA"/>
<path d="M10.8418 14.5C10.5659 14.02 9.95408 13.8579 9.47606 14.1338L8.666 14.6021V13.666C8.666 13.1143 8.21776 12.666 7.666 12.666C7.11375 12.666 6.666 13.1143 6.666 13.666V14.6001L5.85594 14.1318C5.37791 13.856 4.7661 14.0181 4.49022 14.498C4.21385 14.9761 4.37791 15.5879 4.85594 15.8643L5.666 16.332L4.85594 16.7998C4.37791 17.0762 4.21385 17.688 4.49022 18.166C4.67381 18.4858 5.01219 18.666 5.35594 18.666C5.52586 18.666 5.69823 18.624 5.85594 18.5322L6.666 18.064V18.998C6.666 19.5498 7.11375 19.998 7.666 19.998C8.21776 19.998 8.666 19.5498 8.666 18.998V18.064L9.47606 18.5322C9.63377 18.624 9.80614 18.666 9.97606 18.666C10.3218 18.666 10.6582 18.4858 10.8418 18.166C11.1181 17.688 10.9541 17.0762 10.4761 16.7998L9.666 16.332L10.4761 15.8643C10.9541 15.5898 11.1181 14.978 10.8418 14.5Z" fill="#8CE1EB"/>
<path d="M19.1758 14.5C18.8999 14.02 18.2881 13.8579 17.81 14.1338L17 14.6001V13.666C17 13.1143 16.5517 12.666 16 12.666C15.4482 12.666 15 13.1143 15 13.666V14.6001L14.1899 14.1318C13.7119 13.856 13.1001 14.0181 12.8242 14.498C12.5478 14.9761 12.7119 15.5879 13.1899 15.8643L14 16.332L13.1899 16.7998C12.7119 17.0762 12.5478 17.688 12.8242 18.166C13.0078 18.4858 13.3462 18.666 13.6899 18.666C13.8598 18.666 14.0322 18.624 14.1899 18.5322L15 18.064V18.998C15 19.5498 15.4482 19.998 16 19.998C16.5517 19.998 17 19.5498 17 18.998V18.064L17.81 18.5322C17.9658 18.624 18.1382 18.666 18.3081 18.666C18.6538 18.666 18.9902 18.4858 19.1738 18.166C19.4502 17.688 19.2861 17.0762 18.8081 16.7998L18 16.332L18.81 15.8643C19.2881 15.5898 19.4521 14.978 19.1758 14.5Z" fill="#8CE1EB"/>
<path d="M28.1758 14.5C27.8999 14.02 27.2881 13.8579 26.81 14.1338L26 14.6001V13.666C26 13.1143 25.5517 12.666 25 12.666C24.4482 12.666 24 13.1143 24 13.666V14.6001L23.1899 14.1318C22.7139 13.856 22.1001 14.0181 21.8242 14.498C21.5478 14.9761 21.7119 15.5879 22.1899 15.8643L23 16.332L22.1899 16.7998C21.7119 17.0762 21.5478 17.688 21.8242 18.166C22.0078 18.4858 22.3462 18.666 22.6899 18.666C22.8598 18.666 23.0322 18.624 23.1899 18.5322L24 18.064V18.998C24 19.5498 24.4482 19.998 25 19.998C25.5517 19.998 26 19.5498 26 18.998V18.064L26.81 18.5322C26.9658 18.624 27.1382 18.666 27.3081 18.666C27.6538 18.666 27.9902 18.4858 28.1738 18.166C28.4502 17.688 28.2861 17.0762 27.8081 16.7998L27 16.332L27.81 15.8643C28.2881 15.5898 28.4521 14.978 28.1758 14.5Z" fill="#8CE1EB"/>
</svg>
