<svg width="32" height="28" viewBox="0 0 32 28" fill="none" xmlns="http://www.w3.org/2000/svg">
<path d="M18.6661 6.66602C18.6661 10.3477 15.6817 13.332 12.0001 13.332C8.31842 13.332 5.33405 10.3477 5.33405 6.66602C5.33405 2.98438 8.31842 0 12.0001 0C15.6817 0 18.6661 2.98438 18.6661 6.66602Z" fill="#26DA58"/>
<path d="M17.666 16H6.33203C2.8418 16 0 18.8418 0 22.334V27C0 27.5518 0.448242 28 1 28H23C23.5518 28 24 27.5518 24 27V22.334C24 18.8418 21.1582 16 17.666 16Z" fill="#26DA58"/>
<path d="M31.6821 11.2661L27.0161 6.93213C26.8281 6.75586 26.5839 6.66602 26.3359 6.66602C25.6757 6.66602 25.3359 7.22803 25.3359 7.66406V10.6641H19.9999C19.2641 10.6641 18.666 11.2622 18.666 11.998C18.666 12.7339 19.2621 13.332 19.9999 13.332H25.3339V16.332C25.3339 16.8862 25.7841 17.332 26.3339 17.332C26.582 17.332 26.8261 17.2402 27.0141 17.0659L31.6801 12.7319C31.8837 12.5439 31.9999 12.2778 31.9999 12C31.9999 11.7222 31.8837 11.4561 31.6821 11.2661Z" fill="#8CEBB2"/>
</svg>
