<svg width="24" height="30" viewBox="0 0 24 30" fill="none" xmlns="http://www.w3.org/2000/svg">
<path d="M9.53534 28.0868H13.5696V28.4334H9.53534V28.0868Z" fill="#344D5B"/>
<path d="M9.98163 27.0746V28.6611C9.98163 28.9028 10.1776 29.0988 10.4194 29.0988H12.6855C12.9273 29.0988 13.1233 28.9028 13.1233 28.6611V27.0746H9.98163Z" fill="#293B44"/>
<path d="M16.2428 1.00203C16.0974 0.937304 15.9271 1.0027 15.8623 1.14807L15.2415 2.54256C15.1768 2.68793 15.2421 2.85826 15.3875 2.92299C15.5329 2.98772 15.7032 2.92232 15.7679 2.77695L16.3888 1.38246C16.4535 1.23709 16.3882 1.06676 16.2428 1.00203Z" fill="#64798A"/>
<path d="M20.1419 3.83496C20.0354 3.7167 19.8532 3.70716 19.735 3.81364L18.6006 4.83504C18.4823 4.94152 18.4728 5.12371 18.5793 5.24197C18.6857 5.36024 18.8679 5.36977 18.9862 5.2633L20.1206 4.2419C20.2388 4.13542 20.2484 3.95323 20.1419 3.83496Z" fill="#64798A"/>
<path d="M22.5516 8.00875C22.5024 7.85739 22.3399 7.77458 22.1885 7.82375L20.7368 8.29545C20.5854 8.34463 20.5026 8.50718 20.5518 8.65853C20.601 8.80989 20.7635 8.89271 20.9149 8.84353L22.3666 8.37183C22.5179 8.32266 22.6008 8.1601 22.5516 8.00875Z" fill="#64798A"/>
<path d="M23.0555 12.8019C23.0721 12.6437 22.9573 12.5019 22.799 12.4853L21.2809 12.3257C21.1227 12.3091 20.9809 12.4239 20.9642 12.5821C20.9476 12.7404 21.0624 12.8822 21.2207 12.8988L22.7388 13.0584C22.897 13.075 23.0388 12.9602 23.0555 12.8019Z" fill="#64798A"/>
<path d="M21.5661 17.3857C21.6457 17.2479 21.5984 17.0716 21.4606 16.9921L20.1387 16.2288C20.0009 16.1493 19.8246 16.1965 19.7451 16.3343C19.6655 16.4721 19.7127 16.6483 19.8505 16.7279L21.1725 17.4911C21.3103 17.5707 21.4865 17.5235 21.5661 17.3857Z" fill="#64798A"/>
<path d="M1.4908 17.3857C1.57037 17.5235 1.7466 17.5707 1.88441 17.4911L3.20636 16.7279C3.34417 16.6483 3.3914 16.4721 3.31183 16.3343C3.23226 16.1965 3.05603 16.1493 2.91822 16.2288L1.59627 16.9921C1.45846 17.0716 1.41123 17.2479 1.4908 17.3857Z" fill="#64798A"/>
<path d="M0.00160178 12.8019C0.0182368 12.9602 0.160029 13.075 0.318282 13.0584L1.83638 12.8988C1.99464 12.8822 2.10946 12.7404 2.09283 12.5821C2.07619 12.4239 1.9344 12.3091 1.77615 12.3257L0.258045 12.4853C0.0997918 12.5019 -0.0150332 12.6437 0.00160178 12.8019Z" fill="#64798A"/>
<path d="M0.505391 8.00875C0.456213 8.1601 0.539053 8.32266 0.690389 8.37183L2.14214 8.84353C2.29348 8.89271 2.45604 8.80989 2.50522 8.65853C2.5544 8.50718 2.47156 8.34463 2.32022 8.29545L0.868469 7.82375C0.717133 7.77458 0.55457 7.85739 0.505391 8.00875Z" fill="#64798A"/>
<path d="M2.91508 3.83496C2.80859 3.95323 2.81815 4.13542 2.9364 4.2419L4.07079 5.2633C4.18904 5.36977 4.37123 5.36024 4.47772 5.24197C4.58421 5.12371 4.57465 4.94152 4.45639 4.83504L3.32201 3.81364C3.20376 3.70716 3.02156 3.7167 2.91508 3.83496Z" fill="#64798A"/>
<path d="M6.81426 1.00203C6.66888 1.06676 6.60351 1.23709 6.66823 1.38246L7.2891 2.77695C7.35382 2.92232 7.52414 2.98772 7.66953 2.92299C7.81491 2.85826 7.88028 2.68793 7.81556 2.54256L7.19469 1.14807C7.12997 1.0027 6.95965 0.937304 6.81426 1.00203Z" fill="#64798A"/>
<path d="M11.5284 0C11.3693 0 11.2403 0.129016 11.2403 0.28814V1.8146C11.2403 1.97373 11.3693 2.10274 11.5284 2.10274C11.6876 2.10274 11.8166 1.97373 11.8166 1.8146V0.28814C11.8166 0.129016 11.6876 0 11.5284 0Z" fill="#64798A"/>
<path d="M9.04883 24.3973V26.9259C9.04883 27.3112 9.36122 27.6236 9.74656 27.6236H13.3583C13.7437 27.6236 14.056 27.3112 14.056 26.9259V24.3973H9.04883Z" fill="#344D5B"/>
<path d="M20.3154 10.8295C19.9544 6.52225 16.4218 3.06595 12.1082 2.79017C6.97536 2.46199 2.70984 6.52808 2.70984 11.5903C2.70984 13.9406 3.62924 16.0763 5.129 17.6568C6.75979 19.3754 7.81527 21.5435 8.11814 23.8641C8.17814 24.3238 8.56333 24.6703 9.02689 24.6703H14.0332C14.4981 24.6703 14.8838 24.3221 14.9427 23.861C15.2344 21.5757 16.212 19.4125 17.8343 17.7543C19.5524 15.9981 20.5415 13.5271 20.3154 10.8295Z" fill="#F7BE56"/>
<path d="M11.5285 17.7401C14.9535 17.7401 17.73 14.9636 17.73 11.5386C17.73 8.11365 14.9535 5.33716 11.5285 5.33716C8.10352 5.33716 5.32703 8.11365 5.32703 11.5386C5.32703 14.9636 8.10352 17.7401 11.5285 17.7401Z" fill="#FCD462"/>
</svg>
