<svg width="24" height="30" viewBox="0 0 24 30" fill="none" xmlns="http://www.w3.org/2000/svg">
<path d="M19.6723 5.11481V22.7806H14.5575C13.6883 22.7806 12.9837 23.4852 12.9837 24.3544V29.4299L12.905 29.5086H1.57379C0.704584 29.5086 0 28.804 0 27.9348V5.11481C0 4.2456 0.704584 3.54102 1.57379 3.54102H18.0986C18.9677 3.54102 19.6723 4.24567 19.6723 5.11481Z" fill="#D4E1F4"/>
<path d="M19.633 22.8199L12.9837 29.4298V24.3937C12.9837 23.5245 13.6883 22.8199 14.5575 22.8199H19.633Z" fill="#00CEB4"/>
<path d="M4.5245 17.1149H2.95071C2.51611 17.1149 2.16382 16.7626 2.16382 16.328C2.16382 15.8934 2.51611 15.5411 2.95071 15.5411H4.5245C4.95911 15.5411 5.3114 15.8934 5.3114 16.328C5.3114 16.7626 4.95903 17.1149 4.5245 17.1149Z" fill="#00ACEA"/>
<path d="M15.9346 17.1149H6.88528C6.45068 17.1149 6.09839 16.7626 6.09839 16.328C6.09839 15.8934 6.45068 15.5411 6.88528 15.5411H15.9345C16.3692 15.5411 16.7214 15.8934 16.7214 16.328C16.7215 16.7626 16.3692 17.1149 15.9346 17.1149Z" fill="#083863"/>
<path d="M4.5245 21.0494H2.95071C2.51611 21.0494 2.16382 20.6971 2.16382 20.2625C2.16382 19.8279 2.51611 19.4756 2.95071 19.4756H4.5245C4.95911 19.4756 5.3114 19.8279 5.3114 20.2625C5.3114 20.6971 4.95903 21.0494 4.5245 21.0494Z" fill="#00ACEA"/>
<path d="M15.9346 21.0494H6.88528C6.45068 21.0494 6.09839 20.6971 6.09839 20.2625C6.09839 19.8279 6.45068 19.4756 6.88528 19.4756H15.9345C16.3692 19.4756 16.7214 19.8279 16.7214 20.2625C16.7214 20.6971 16.3692 21.0494 15.9346 21.0494Z" fill="#083863"/>
<path d="M4.5245 13.1805H2.95071C2.51611 13.1805 2.16382 12.8282 2.16382 12.3936C2.16382 11.959 2.51611 11.6067 2.95071 11.6067H4.5245C4.95911 11.6067 5.3114 11.959 5.3114 12.3936C5.3114 12.8282 4.95903 13.1805 4.5245 13.1805Z" fill="#00ACEA"/>
<path d="M15.9346 13.1805H6.88528C6.45068 13.1805 6.09839 12.8282 6.09839 12.3936C6.09839 11.959 6.45068 11.6067 6.88528 11.6067H15.9345C16.3692 11.6067 16.7214 11.959 16.7214 12.3936C16.7214 12.8282 16.3692 13.1805 15.9346 13.1805Z" fill="#083863"/>
<path d="M4.5245 9.24603H2.95071C2.51611 9.24603 2.16382 8.89374 2.16382 8.45914C2.16382 8.02453 2.51611 7.67224 2.95071 7.67224H4.5245C4.95911 7.67224 5.3114 8.02453 5.3114 8.45914C5.3114 8.89367 4.95903 9.24603 4.5245 9.24603Z" fill="#00ACEA"/>
<path d="M15.9346 9.24603H6.88528C6.45068 9.24603 6.09839 8.89374 6.09839 8.45914C6.09839 8.02453 6.45068 7.67224 6.88528 7.67224H15.9345C16.3692 7.67224 16.7214 8.02453 16.7214 8.45914C16.7215 8.89367 16.3692 9.24603 15.9346 9.24603Z" fill="#083863"/>
<path d="M22.4264 22.3871C21.9918 22.3871 21.6395 22.0348 21.6395 21.6002V3.14758C21.6395 2.27837 20.935 1.57379 20.0658 1.57379H2.75406C2.31945 1.57379 1.96716 1.2215 1.96716 0.786895C1.96716 0.352292 2.31953 0 2.75406 0H20.0658C21.8041 0 23.2133 1.40924 23.2133 3.14758V21.6003C23.2133 22.0348 22.861 22.3871 22.4264 22.3871Z" fill="#00ACEA"/>
</svg>
