<svg width="27" height="21" viewBox="0 0 27 21" fill="none" xmlns="http://www.w3.org/2000/svg">
<path d="M9.55377 13.4579V18.1933C9.55377 19.5034 8.48698 20.561 7.16531 20.561C5.84365 20.561 4.77686 19.5034 4.77686 18.1933V13.4579C4.77686 13.0159 5.12711 12.6687 5.57301 12.6687H8.75762C9.20352 12.6687 9.55377 13.0159 9.55377 13.4579Z" fill="#57555C"/>
<path d="M3.98077 6.23108H3.18461C1.43313 6.23108 0 7.67968 0 9.45031C0 11.2208 1.43313 12.6695 3.18461 12.6695H3.98077C4.42666 12.6695 4.77692 12.3154 4.77692 11.8647V7.03589C4.77692 6.58514 4.42666 6.23108 3.98077 6.23108Z" fill="#7A7780"/>
<path d="M4.77692 9.5542V11.8907C4.77692 12.3268 4.42666 12.6696 3.98077 12.6696H3.18461C1.43313 12.6696 0 11.2676 0 9.5542H4.77692Z" fill="#57555C"/>
<path d="M26.2108 11.008H23.8431C23.4069 11.008 23.0539 10.6829 23.0539 10.2811C23.0539 9.87933 23.4069 9.5542 23.8431 9.5542H26.2108C26.647 9.5542 27 9.87933 27 10.2811C27 10.6829 26.647 11.008 26.2108 11.008Z" fill="#1DE8F1"/>
<path d="M24.009 15.5559L22.4512 13.9982C22.147 13.694 22.147 13.2011 22.4512 12.8969C22.7555 12.5926 23.2484 12.5926 23.5526 12.8969L25.1103 14.4545C25.4145 14.7588 25.4145 15.2517 25.1103 15.5559C24.806 15.8601 24.3132 15.8601 24.009 15.5559Z" fill="#1BD9DE"/>
<path d="M22.4512 7.66404C22.147 7.35982 22.147 6.86692 22.4512 6.5627L24.009 5.00502C24.3132 4.7008 24.8061 4.7008 25.1103 5.00502C25.4145 5.30923 25.4145 5.80214 25.1103 6.10635L23.5526 7.66404C23.2483 7.9683 22.7555 7.9683 22.4512 7.66404Z" fill="#1DE8F1"/>
<path d="M11.0077 5.57301V12.9772L9.4292 14.3307H5.48305C4.45699 14.3307 3.57306 13.6619 3.25747 12.7384C3.16276 12.4836 3.11536 12.2288 3.11536 11.9422V7.16531C3.11536 5.84365 4.17287 4.77686 5.48305 4.77686H9.4292L11.0077 5.57301Z" fill="#FF507E"/>
<path d="M11.0077 9.5542V12.9776L9.4292 14.3311H5.48305C4.45699 14.3311 3.57306 13.6623 3.25747 12.7388C3.16276 12.484 3.11536 12.2293 3.11536 11.9427V9.5542H11.0077Z" fill="#F40F78"/>
<path d="M19.1077 1.62433V17.4833C19.1077 17.8005 18.9187 18.0859 18.6195 18.2128C18.336 18.3397 17.9895 18.2762 17.7691 18.0383L16.8399 17.1185C15.5486 15.8181 12.168 14.3115 10.3412 14.3115H9.55383V4.79612H10.3412C12.168 4.79612 15.5486 3.28952 16.8399 1.98903L17.7691 1.06916C17.9896 0.831329 18.3203 0.767841 18.6195 0.894712C18.9187 1.02158 19.1077 1.30715 19.1077 1.62433Z" fill="#E1E4FB"/>
<path d="M19.1077 9.5542V17.4837C19.1077 17.8009 18.9187 18.0864 18.6195 18.2132C18.336 18.3401 17.9895 18.2767 17.7691 18.0387L16.8399 17.1189C15.5486 15.8185 12.168 14.3119 10.3412 14.3119H9.55383V9.5542H19.1077Z" fill="#C5C9F7"/>
<path d="M20.7692 1.575V17.325C20.7692 18.1912 20.0215 18.9 19.1077 18.9C18.1939 18.9 17.4462 18.1912 17.4462 17.325V1.575C17.4462 0.708749 18.1939 0 19.1077 0C20.0215 0 20.7692 0.708749 20.7692 1.575Z" fill="#FF507E"/>
<path d="M20.7692 9.5542V17.3427C20.7692 18.1994 20.0215 18.9003 19.1077 18.9003C18.1939 18.9003 17.4462 18.1994 17.4462 17.3427V9.5542H20.7692Z" fill="#F40F78"/>
<path d="M23.8431 11.008H26.2108C26.647 11.008 27 10.7293 27 10.3849H23.0539C23.0539 10.7293 23.4069 11.008 23.8431 11.008Z" fill="#1BD9DE"/>
</svg>
