<svg width="33" height="18" viewBox="0 0 33 18" fill="none" xmlns="http://www.w3.org/2000/svg">
<path d="M27.8891 9.89003L27.7656 8.83752C27.1103 8.94443 22.6019 10.1318 16.3367 10.1318C10.0527 10.1318 5.57302 8.94594 4.90871 8.83778L4.78494 9.88952C4.41211 13.0573 4.54462 16.1059 4.54212 16.4428C5.05745 16.5278 9.80466 17.7773 16.3369 17.7773C22.8891 17.7773 27.6006 16.5303 28.1319 16.4428C28.1287 15.9844 28.2702 13.1391 27.8891 9.89003Z" fill="#F57F41"/>
<path d="M27.8892 9.89003L27.7657 8.83752C27.1104 8.94443 22.6026 10.1318 16.3381 10.1318L16.3384 17.7773C22.8895 17.7773 27.6007 16.5303 28.1319 16.4425C28.1287 15.9844 28.2702 13.1391 27.8892 9.89003Z" fill="#EA623C"/>
<path d="M27.9486 9.95087C27.604 7.03371 26.9248 4.56027 25.9849 2.7979C25.0228 0.993684 23.8023 0 22.5481 0C21.2559 0 20.3073 0.759419 19.3901 1.49353C18.4737 2.22714 17.6082 2.92017 16.3892 2.92017C15.1702 2.92017 14.3047 2.22714 13.3883 1.49353C12.4712 0.759419 11.5226 0 10.2304 0C8.97611 0 7.75558 0.993684 6.79348 2.7979C5.85361 4.56027 5.17493 7.03396 4.83059 9.95112L4.72672 10.83C5.29603 10.9218 9.96018 12.1251 16.3892 12.1251C22.845 12.1251 27.4652 10.9248 28.0522 10.83L27.9486 9.95087Z" fill="#FFE07F"/>
<path d="M27.9482 9.95087C27.6021 7.03371 26.9199 4.56027 25.9759 2.7979C25.0096 0.993684 23.7837 0 22.524 0C21.2261 0 20.2734 0.759419 19.3522 1.49353C18.4318 2.22714 17.5625 2.92017 16.3381 2.92017V12.1251C22.8222 12.1251 27.4626 10.9248 28.0523 10.83L27.9482 9.95087Z" fill="#FFD23A"/>
<path d="M16.3381 17.7769C10.7815 17.7769 5.28466 16.9066 0 15.1901L0.595328 13.3584C5.68728 15.0123 10.9842 15.8509 16.3381 15.8509C21.6921 15.8509 26.989 15.0123 32.0809 13.3584L32.6762 15.1901C27.3916 16.9066 21.8948 17.7769 16.3381 17.7769Z" fill="#FFE07F"/>
<path d="M32.0809 13.3584C26.989 15.0123 21.6921 15.8509 16.3381 15.8509V17.7769C21.8948 17.7769 27.3916 16.9066 32.6763 15.1901L32.0809 13.3584Z" fill="#FFD23A"/>
</svg>
