<svg width="29" height="11" viewBox="0 0 29 11" fill="none" xmlns="http://www.w3.org/2000/svg">
<path d="M29 5.32364C29 7.03744 29 7.38665 28.8627 10.2271C28.746 10.2271 28.0392 10.2265 27.922 10.2252C27.6074 10.2221 27.531 10.1396 27.5298 9.78765C27.5264 8.04613 27.527 6.30461 27.5235 4.56375C27.523 4.10099 27.3573 3.91401 26.9635 3.91588C26.5714 3.91775 26.4018 4.10978 26.4012 4.56502C26.4001 6.27629 26.4012 7.98695 26.4018 9.69762C26.4018 10.1818 26.3305 10.2573 25.8797 10.2542C25.5727 10.2523 25.2662 10.2542 24.9592 10.2523C24.6125 10.2505 24.5291 10.1547 24.5286 9.75053C24.5263 8.0298 24.5262 6.3084 24.5239 4.58767C24.5234 4.13371 24.3629 3.93161 24.0065 3.92028C23.5839 3.90769 23.3987 4.10792 23.3987 4.58454C23.3976 6.30593 23.3982 8.02666 23.3982 9.74739C23.3982 10.1617 23.3435 10.2215 22.9612 10.224C22.6082 10.2259 22.2546 10.2228 21.9016 10.2266C21.6613 10.2291 21.5434 10.1183 21.544 9.84248C21.5463 7.33721 21.5463 4.83261 21.5423 2.32741C21.5417 2.05728 21.6555 1.92695 21.8907 1.92322C22.2811 1.91689 22.6715 1.92508 23.0619 1.92068C23.308 1.91755 23.3902 2.09193 23.4218 2.34314C24.0342 1.85645 24.6747 1.74438 25.3669 2.00631C25.5733 2.0844 25.7533 2.20907 25.9126 2.36393C26.0247 2.47287 26.0948 2.47221 26.2167 2.36833C27.0487 1.66128 28.071 1.72552 28.746 2.39038C28.9126 3.33971 29 4.32068 29 5.32364Z" fill="#00B8F8"/>
<path d="M10.174 6.33244H10.1704C10.1704 5.51267 10.1704 4.6929 10.1698 3.87313C10.1693 3.80647 10.1598 3.73987 10.1539 3.67377C10.0731 2.74196 9.57539 2.17872 8.65532 2.03129C7.84204 1.90153 7.01933 1.99297 6.20069 1.97824C5.98953 1.97412 5.90696 2.12098 5.90876 2.32265C5.9117 2.65645 5.90933 2.99025 5.90995 3.32349C5.91113 3.69742 5.98778 3.77763 6.36053 3.78C6.85593 3.78355 7.35194 3.77588 7.84734 3.78175C8.12572 3.78468 8.24837 3.90795 8.23894 4.15568C8.23008 4.40341 8.09975 4.5107 7.85203 4.50303C7.57602 4.49416 7.29883 4.49535 7.02283 4.50246C5.94534 4.53018 5.18393 5.25439 5.14916 6.29773C5.13262 6.80199 5.13855 7.308 5.14329 7.81282C5.1539 9.02481 5.83211 9.70128 7.04704 9.70952C7.79073 9.71482 8.53385 9.71245 9.27754 9.70952C9.89028 9.70715 10.1681 9.4347 10.1728 8.82015C10.1787 7.99084 10.174 7.16164 10.174 6.33244ZM7.89509 7.99496C7.09479 8.0321 7.07707 8.01799 7.07707 7.21882C7.07707 7.04718 7.07588 6.87559 7.07763 6.70395C7.07882 6.63791 7.06821 6.56183 7.09592 6.50696C7.28935 6.12186 7.64793 6.31173 7.93692 6.28994C8.14982 6.27341 8.25655 6.42676 8.25305 6.64497C8.25068 6.80656 8.25249 6.96872 8.25249 7.13094C8.25305 7.2931 8.25074 7.45531 8.25367 7.61691C8.25779 7.86226 8.14519 7.98316 7.89509 7.99496Z" fill="#002875"/>
<path d="M15.8683 5.16211C15.868 6.02049 15.8731 6.87898 15.8668 7.7373C15.8578 8.97989 15.0825 9.74672 13.8377 9.75157C13.1891 9.75411 12.5405 9.75383 11.892 9.75174C11.5382 9.75061 11.4586 9.66849 11.4572 9.3112C11.4558 8.94879 11.4641 8.58614 11.4555 8.22395C11.4492 7.95652 11.5735 7.83862 11.8326 7.83777C12.4049 7.83602 12.977 7.82947 13.5493 7.82981C13.7704 7.82992 13.9707 7.78776 13.9704 7.5218C13.97 7.25494 13.7675 7.21735 13.5475 7.21419C13.1292 7.20804 12.7076 7.24874 12.2949 7.14387C11.487 6.93858 10.9183 6.3018 10.8907 5.47215C10.8554 4.41458 10.8746 3.35516 10.8731 2.29652C10.8728 2.07555 10.9889 1.96639 11.2132 1.96791C11.6042 1.97062 11.9953 1.96588 12.3863 1.96949C12.6911 1.97226 12.7783 2.05771 12.7796 2.36194C12.783 3.17262 12.781 3.98331 12.7822 4.7941C12.7829 5.22183 12.8574 5.29763 13.2722 5.30017C13.9478 5.30423 13.962 5.28973 13.9617 4.61981C13.9613 3.8759 13.9601 3.13187 13.9631 2.38796C13.9645 2.03812 14.0333 1.97192 14.3844 1.96926C14.7278 1.96667 15.0711 1.96718 15.4145 1.96847C15.7985 1.96989 15.868 2.03739 15.8685 2.41511C15.8695 3.33083 15.8686 4.2465 15.8683 5.16211Z" fill="#002875"/>
<path d="M4.67088 3.78951C4.65259 2.64655 3.96021 1.97539 2.80957 1.96946C2.02225 1.96591 0.888164 1.9678 0.10141 1.96898C-0.125094 2.98574 0.10134 4.04249 0.10134 5.12709C0.10134 6.74185 0.101304 7.42424 2.73945e-08 9.74432C0.101427 9.74432 1.05674 9.74381 1.15761 9.74319C1.51444 9.74144 1.60407 9.65706 1.60582 9.31265C1.60875 8.75945 1.61468 8.20626 1.60582 7.65306C1.60288 7.48086 1.64826 7.42131 1.82814 7.42661C2.21856 7.43898 2.61016 7.43898 3.00063 7.42424C3.91714 7.38885 4.59654 6.75901 4.65078 5.84837C4.6921 5.16423 4.68149 4.47597 4.67088 3.78951ZM2.75646 5.17839C2.7529 5.39423 2.63499 5.51282 2.41853 5.51869C2.20975 5.52456 1.99979 5.51045 1.79163 5.52399C1.62766 5.5346 1.60232 5.45795 1.60762 5.32114C1.6153 5.11235 1.60937 4.90301 1.60937 4.69423C1.60994 4.49431 1.62173 4.29377 1.60644 4.0956C1.59289 3.91335 1.66598 3.86385 1.83588 3.87502C2.02519 3.888 2.21568 3.87384 2.40561 3.87976C2.63268 3.88682 2.75713 4.0054 2.7577 4.23778C2.75945 4.55149 2.76176 4.86525 2.75646 5.17839Z" fill="#002875"/>
<path d="M19.6491 6.93388C19.6491 7.89007 19.6504 8.84632 19.6484 9.80251C19.6476 10.1785 19.589 10.2479 19.2774 10.2511C18.9413 10.2545 18.605 10.2563 18.2689 10.2509C17.9661 10.2459 17.8981 10.1631 17.8977 9.79809C17.8955 7.9172 17.8952 6.0363 17.8952 4.15547C17.8952 3.74303 17.8972 3.74303 17.5634 3.74253C16.8823 3.74153 16.8823 3.74153 16.8822 2.92884C16.8822 2.64514 16.8853 2.36132 16.8813 2.07769C16.8775 1.79754 16.9721 1.65 17.2242 1.64371C17.8519 1.6281 18.3433 1.3205 18.6805 0.673586C18.8102 0.424799 18.9669 0.19157 19.2022 0.0626347C19.4714 -0.0848448 19.6356 0.0312093 19.6401 0.378128C19.6447 0.735315 19.6457 1.09269 19.6396 1.44981C19.6371 1.59742 19.676 1.65716 19.8056 1.64869C19.9732 1.63774 20.1417 1.64776 20.3098 1.64689C20.5052 1.64583 20.606 1.76126 20.6072 1.99194C20.6098 2.45423 20.6112 2.91652 20.609 3.37887C20.6078 3.61938 20.5092 3.75211 20.297 3.74228C20.2793 3.74141 20.2616 3.74209 20.2439 3.7424C19.6491 3.75342 19.6491 3.75342 19.649 4.47507C19.6491 5.29467 19.6491 6.11428 19.6491 6.93388Z" fill="#00B8F8"/>
</svg>
