<svg width="24" height="24" viewBox="0 0 24 24" fill="none" xmlns="http://www.w3.org/2000/svg">
<path d="M0.75 12C0.628 12 0.507 11.971 0.396 11.911C0.152 11.78 0 11.526 0 11.25V3.75C0 2.785 0.785 2 1.75 2H10.25C11.767 2 13 3.233 13 4.75V7.25C13 8.767 11.767 10 10.25 10H4.36C4.113 10 3.87 10.074 3.673 10.209L1.164 11.875C1.04 11.958 0.895 12 0.75 12Z" fill="#FFC107"/>
<path d="M5.50012 12C3.84612 12 2.50012 13.346 2.50012 15C2.50012 16.654 3.84612 18 5.50012 18C7.15412 18 8.50012 16.654 8.50012 15C8.50012 13.346 7.15412 12 5.50012 12Z" fill="#2196F3"/>
<path d="M8.25 19H2.75C1.233 19 0 20.233 0 21.75V23.25C0 23.664 0.336 24 0.75 24H10.25C10.664 24 11 23.664 11 23.25V21.75C11 20.233 9.76699 19 8.25 19Z" fill="#2196F3"/>
<path d="M5.5 2H1.75C0.785 2 0 2.785 0 3.75V11.25C0 11.526 0.152 11.78 0.395 11.911C0.507 11.971 0.628 12 0.75 12C0.894999 12 1.04 11.958 1.165 11.875L3.674 10.209C3.87 10.074 4.113 10 4.36 10H5.5V2Z" fill="#DEA806"/>
<path d="M5.50012 12C3.84612 12 2.50012 13.346 2.50012 15C2.50012 16.654 3.84612 18 5.50012 18V12Z" fill="#1D83D4"/>
<path d="M5.5 19H2.75C1.233 19 0 20.233 0 21.75V23.25C0 23.664 0.336 24 0.75 24H5.5V19Z" fill="#1D83D4"/>
<path d="M23.25 9.99999C23.104 9.99999 22.96 9.95699 22.834 9.87399L20.338 8.21C20.132 8.07199 19.893 8 19.645 8H13.75C12.785 8 12 7.215 12 6.25V1.75C12 0.785 12.785 0 13.75 0H22.25C23.215 0 24 0.785 24 1.75V9.24999C24 9.52599 23.848 9.78099 23.603 9.91099C23.493 9.97099 23.371 9.99999 23.25 9.99999Z" fill="#2196F3"/>
<path d="M18.4999 12C16.8459 12 15.4999 13.346 15.4999 15C15.4999 16.654 16.8459 18 18.4999 18C20.1539 18 21.4999 16.654 21.4999 15C21.4999 13.346 20.1539 12 18.4999 12Z" fill="#4CAF50"/>
<path d="M21.2501 19H15.7501C14.2331 19 13.0001 20.233 13.0001 21.75V23.25C13.0001 23.664 13.3361 24 13.7501 24H23.2501C23.6641 24 24.0001 23.664 24.0001 23.25V21.75C24.0001 20.233 22.7671 19 21.2501 19Z" fill="#4CAF50"/>
<path d="M18.5 0H13.75C12.785 0 12 0.785 12 1.75V6.25C12 7.215 12.785 8 13.75 8H18.5V0Z" fill="#1D83D4"/>
<path d="M18.4999 12C16.8459 12 15.4999 13.346 15.4999 15C15.4999 16.654 16.8459 18 18.4999 18V12Z" fill="#429846"/>
<path d="M18.5 19H15.75C14.233 19 13 20.233 13 21.75V23.25C13 23.664 13.336 24 13.75 24H18.5V19Z" fill="#429846"/>
</svg>
