<svg width="32" height="30" viewBox="0 0 32 30" fill="none" xmlns="http://www.w3.org/2000/svg">
<path d="M19.334 12.666C19.334 14.5073 17.8413 16 16 16C14.1587 16 12.666 14.5073 12.666 12.666C12.666 10.8247 14.1587 9.33203 16 9.33203C17.8413 9.33203 19.334 10.8247 19.334 12.666Z" fill="#FD7EA4"/>
<path d="M19 17.332H13C10.9781 17.332 9.33401 18.9761 9.33401 20.998V22.998C9.33401 23.5498 9.78226 23.998 10.334 23.998H21.668C22.2202 23.998 22.668 23.5498 22.668 22.998V20.998C22.666 18.978 21.022 17.332 19 17.332Z" fill="#FD7EA4"/>
<path d="M28 0H4C1.79395 0 0 1.79395 0 4V25.334C0 27.54 1.79395 29.334 4 29.334H28C30.2061 29.334 32 27.54 32 25.334V4C32 1.79395 30.2061 0 28 0ZM28 26.666H4C3.26416 26.666 2.66602 26.0679 2.66602 25.332V6.66602H29.332V25.332C29.334 26.0679 28.7358 26.666 28 26.666Z" fill="#FC3B80"/>
</svg>
