<svg width="26" height="26" viewBox="0 0 26 26" fill="none" xmlns="http://www.w3.org/2000/svg">
<path d="M6.50531 19.4948C5.01222 18.0172 2.60527 18.0172 1.11218 19.4948C-0.365437 20.9877 -0.365437 23.3949 1.11218 24.8877C2.60527 26.3656 5.01222 26.3656 6.50531 24.8877C7.98293 23.3949 7.98293 20.9879 6.50531 19.4948Z" fill="#FF9F00"/>
<path d="M16.7578 25.2383C16.7578 25.4972 16.7273 25.7409 16.712 26H12.1417C12.1722 25.7409 12.1875 25.4972 12.1875 25.2383C12.1875 22.0847 10.9079 19.236 8.83594 17.1641C6.76403 15.0922 3.91532 13.8125 0.761719 13.8125C0.502854 13.8125 0.258865 13.8278 0 13.8581V9.28781C0.258865 9.27254 0.502854 9.24219 0.761719 9.24219C5.17969 9.24219 9.17118 11.0398 12.0655 13.9343C14.9602 16.8288 16.7578 20.8203 16.7578 25.2383Z" fill="#FF9F00"/>
<path d="M26 25.2383C26 25.4972 25.9695 25.7409 25.9542 26H21.2823C21.2976 25.7409 21.3281 25.4972 21.3281 25.2383C21.3281 19.571 19.0277 14.4219 15.2953 10.7047C11.5781 6.97231 6.42879 4.67188 0.761719 4.67188C0.502854 4.67188 0.258865 4.70243 0 4.7177V0.0458222C0.258865 0.0305481 0.502854 0 0.761719 0C7.70864 0 13.9851 2.91992 18.5401 7.45969C23.0801 12.0149 26 18.2914 26 25.2383Z" fill="#FF9F00"/>
<path d="M6.50519 19.4949C7.98281 20.9878 7.98281 23.3949 6.50519 24.8878C5.0121 26.3656 2.60515 26.3656 1.11206 24.8878L6.50519 19.4949Z" fill="#FF7816"/>
<path d="M12.0655 13.9343C14.9602 16.8289 16.7578 20.8203 16.7578 25.2383C16.7578 25.4972 16.7273 25.741 16.712 26H12.1417C12.1722 25.741 12.1875 25.4972 12.1875 25.2383C12.1875 22.0847 10.9079 19.236 8.83594 17.1641L12.0655 13.9343Z" fill="#FF7816"/>
<path d="M26.0002 25.2383C26.0002 25.4972 25.9697 25.741 25.9544 26H21.2825C21.2978 25.741 21.3283 25.4972 21.3283 25.2383C21.3283 19.5711 19.0279 14.4219 15.2955 10.7048L18.5403 7.45972C23.0803 12.015 26.0002 18.2914 26.0002 25.2383Z" fill="#FF7816"/>
</svg>
